<svg xmlns="http://www.w3.org/2000/svg" viewBox="0 0 32 32" role="img" aria-label="Bricksplaza">
  <rect width="32" height="32" rx="7" fill="#26211E"/>
  <path fill="#A8412E" fill-rule="evenodd" d="M8 5.8h8.4c2.95 0 4.85 1.15 4.85 3.7 0 1.55-.85 2.7-2.45 3.25 1.95.5 3.2 1.85 3.2 4.05 0 2.85-2.15 4.6-6.05 4.6H8V5.8zm4.05 2.35v4.05h3.1c1.4 0 2.15-.7 2.15-2.05s-.75-2.05-2.15-2.05h-3.1zm0 6.5v5.2h3.45c1.8 0 2.75-.9 2.75-2.6s-.95-2.6-2.75-2.6h-3.45z"/>
  <g fill="none" stroke="#EDE1D3" stroke-width="0.72" stroke-linecap="butt" clip-path="url(#bclip)">
    <path d="M7.5 10.15h17M7.5 14.05h17M7.5 18h17M7.5 21.9h17"/>
    <path d="M13.3 5.8v4.35M18.6 5.8v4.35M11.15 10.15v3.9M16.2 10.15v3.9M21.2 10.15v3.9M13.3 14.05v3.95M18.6 14.05v3.95M11.15 18v3.9M16.2 18v3.9M21.2 18v3.9M13.3 21.9v4.3M18.6 21.9v4.3"/>
  </g>
  <clipPath id="bclip">
    <path d="M8 5.8h8.4c2.95 0 4.85 1.15 4.85 3.7 0 1.55-.85 2.7-2.45 3.25 1.95.5 3.2 1.85 3.2 4.05 0 2.85-2.15 4.6-6.05 4.6H8V5.8zm4.05 2.35v4.05h3.1c1.4 0 2.15-.7 2.15-2.05s-.75-2.05-2.15-2.05h-3.1zm0 6.5v5.2h3.45c1.8 0 2.75-.9 2.75-2.6s-.95-2.6-2.75-2.6h-3.45z"/>
  </clipPath>
</svg>
